<svg width="16" height="17" viewBox="0 0 16 17" fill="none" xmlns="http://www.w3.org/2000/svg">
    <path
        d="M12.3125 15.5C12.2073 15.5004 12.1046 15.4676 12.0191 15.4062L8.00003 12.4925L3.98097 15.4062C3.8951 15.4685 3.79166 15.5019 3.68558 15.5015C3.57951 15.5011 3.47631 15.467 3.3909 15.4041C3.30549 15.3412 3.2423 15.2528 3.21046 15.1516C3.17862 15.0504 3.17978 14.9417 3.21378 14.8413L4.78128 10.1984L0.718779 7.4125C0.630782 7.35222 0.564368 7.26538 0.529239 7.16467C0.49411 7.06396 0.492107 6.95466 0.523524 6.85273C0.554941 6.7508 0.618131 6.66158 0.70386 6.59812C0.78959 6.53466 0.893367 6.50028 1.00003 6.5H6.0119L7.5244 1.84531C7.55699 1.74482 7.62056 1.65723 7.70601 1.59511C7.79146 1.53298 7.89439 1.49952 8.00003 1.49952C8.10567 1.49952 8.2086 1.53298 8.29405 1.59511C8.3795 1.65723 8.44307 1.74482 8.47565 1.84531L9.98815 6.50156H15C15.1068 6.50151 15.2108 6.53565 15.2968 6.59899C15.3828 6.66233 15.4462 6.75153 15.4779 6.85354C15.5095 6.95555 15.5076 7.065 15.4725 7.16587C15.4374 7.26673 15.3709 7.35371 15.2828 7.41406L11.2188 10.1984L12.7853 14.84C12.8107 14.9151 12.8179 14.9953 12.8062 15.0737C12.7945 15.1522 12.7643 15.2267 12.7181 15.2912C12.6719 15.3557 12.611 15.4082 12.5405 15.4445C12.47 15.4808 12.3918 15.4999 12.3125 15.5Z"
        fill="currentcolor" />
</svg>
    